<?xml version="1.0" standalone="yes"?>
<svg xmlns="http://www.w3.org/2000/svg" width="90" height="90">
<path style="fill:#010101; stroke:none;" d="M0 0L0 90L90 90L90 0L0 0z"/>
<path style="fill:#ffffff; stroke:none;" d="M40 81L40 54L31 54L31 46L40 46C40.0007 39.9384 39.575 32.8803 44.2276 28.2276C50.2228 22.2325 59.694 22.6034 60 32C50.168 32.0347 49.0248 36.9966 49 46L60 46L59 54L49 54L49 81C89.8897 79.1315 92.1799 12.4191 51 9.09337C36.5358 7.92524 23.5649 11.6895 14.7894 24C-0.922452 46.0408 13.9583 77.4904 40 81z"/>
</svg>
