<?xml version="1.0" standalone="yes"?>
<svg xmlns="http://www.w3.org/2000/svg" width="90" height="90">
<path style="fill:#010101; stroke:none;" d="M0 0L0 90L90 90L90 0L0 0z"/>
<path style="fill:#ffffff; stroke:none;" d="M36 9.51775C12.8863 14.449 1.74096 42.8041 12.9051 63C20.9745 77.5975 38.0214 83.8913 54 80.4823C77.1137 75.551 88.259 47.1959 77.0949 27C69.0255 12.4025 51.9785 6.10874 36 9.51775z"/>
<path style="fill:#010101; stroke:none;" d="M29.6181 27.0432C26.7361 29.2831 30.6642 33.4811 33.3819 31.1535C36.2253 28.7184 32.3577 24.9139 29.6181 27.0432M27 36L27 60L36 60L36 36L27 36M42 36L42 60L50 60C50 56.4374 48.2032 43.2068 54.0502 43.2068C59.8973 43.2068 58 56.4148 58 60L66 60C66 49.4286 65.6113 29.6959 50 40L50 36L42 36z"/>
</svg>
