<?xml version="1.0" standalone="yes"?>
<svg xmlns="http://www.w3.org/2000/svg" width="90" height="90">
<path style="fill:#010101; stroke:none;" d="M0 0L0 90L90 90L90 0L0 0z"/>
<path style="fill:#ffffff; stroke:none;" d="M36 9.51775C12.8863 14.449 1.74096 42.8041 12.9051 63C20.9745 77.5975 38.0214 83.8913 54 80.4823C77.1137 75.551 88.259 47.1959 77.0949 27C69.0255 12.4025 51.9785 6.10874 36 9.51775z"/>
<path style="fill:#010101; stroke:none;" d="M47 40L27 32L30 43L26 42C27.6759 46.2323 29.6591 48.5077 34 50L34 51L30 51L38 57L38 58L27 61L27 62C38.4471 66.8379 52.6795 63.9798 59.5316 52.9961C63.2418 47.049 63.6456 40.0904 67 34L63 35L66 31C57.8863 31.4505 45.7833 26.1083 47 40z"/>
</svg>
